# xmcd
#
# Track frame offsets:
#	150
#	23745
#	44140
#	65950
#	83102
#	98650
#	123600
#	152762
#	172362
#	192840
#	214157
#	233095
#	255902
#	276452
#
# Disc length: 3988 seconds
#
# Revision: 1
# Processed by: cddbd v1.5.1PL0 Copyright (c) Steve Scherf et al.
# Submitted via: CDex 1.50Beta5
#
DISCID=cf0f920e
DTITLE=谷村新司 - ニュー・ベスト
DYEAR=1996
DGENRE=
TTITLE0=チャンピオン
TTITLE1=いい日旅立ち
TTITLE2=遠くで汽笛を聞きながら
TTITLE3=今はもうだれも
TTITLE4=ジョニーの子守唄
TTITLE5=マイ・ボーイ
TTITLE6=群青
TTITLE7=22歳
TTITLE8=夜顔
TTITLE9=忘れていいの
TTITLE10=三都物語
TTITLE11=陽はまた昇る
TTITLE12=昴
TTITLE13=動天
EXTD=
EXTT0=
EXTT1=
EXTT2=
EXTT3=
EXTT4=
EXTT5=
EXTT6=
EXTT7=
EXTT8=
EXTT9=
EXTT10=
EXTT11=
EXTT12=
EXTT13=
PLAYORDER=
